ply
format ascii 1.0
comment Created by Blender 2.76 (sub 0) - www.blender.org, source file: 'Sci-Fi doorAnimated3.blend'
element vertex 383
property float x
property float y
property float z
property float nx
property float ny
property float nz
property float s
property float t
element face 108
property list uchar uint vertex_indices
end_header
-1.856911 -0.714743 0.017660 0.000004 1.000000 0.000000 0.283203 0.777344
-1.856911 -0.714743 0.605660 0.000004 1.000000 0.000000 0.283203 0.886719
-1.730911 -0.714744 0.605660 0.000004 1.000000 0.000000 0.259766 0.886719
-1.730911 -0.714744 0.017660 0.000004 1.000000 0.000000 0.259766 0.777344
-0.259534 -1.070085 0.643381 0.000000 0.000000 1.000000 0.087891 0.125000
-0.259534 -1.080145 0.643381 0.000000 0.000000 1.000000 0.082031 0.121094
-0.159310 -1.080145 0.643381 0.000000 0.000000 1.000000 0.125000 0.121094
-0.159310 -1.070085 0.643381 0.000000 0.000000 1.000000 0.119141 0.125000
-0.259534 -1.080145 0.804661 -0.000000 0.000000 -1.000000 0.082031 0.175781
-0.259534 -1.070085 0.804661 -0.000000 0.000000 -1.000000 0.087891 0.169922
-0.159310 -1.070085 0.804661 -0.000000 0.000000 -1.000000 0.119141 0.169922
-0.159310 -1.080145 0.804661 -0.000000 0.000000 -1.000000 0.125000 0.175781
-1.703911 -0.829934 0.840000 -0.000000 1.000000 0.000000 0.998047 0.816406
-1.703911 -0.829934 0.000000 -0.000000 1.000000 0.000000 0.998047 0.982422
-1.883911 -0.829934 0.000000 -0.000000 1.000000 0.000000 0.962891 0.982422
-1.883911 -0.829934 0.840000 -0.000000 1.000000 0.000000 0.962891 0.816406
1.999999 -0.900001 1.900000 0.000000 1.000000 -0.000001 0.479492 0.226562
-0.433001 -0.900000 1.700000 0.000000 1.000000 -0.000001 0.189453 0.203125
-1.567000 -0.900000 1.700000 0.000000 1.000000 -0.000001 0.054688 0.203125
-2.000000 -0.900000 1.900000 0.000000 1.000000 -0.000001 0.003906 0.226562
-1.567000 -0.900000 1.700000 0.002120 0.999998 0.000510 0.054688 0.203125
-1.567000 -0.900000 0.100000 0.002120 0.999998 0.000510 0.054688 0.011719
-2.001109 -0.898244 0.061596 0.002120 0.999998 0.000510 0.003906 0.007812
-2.000000 -0.900000 1.900000 0.002120 0.999998 0.000510 0.003906 0.226562
-0.119422 -0.996254 1.200000 1.000000 0.000000 -0.000000 0.972656 0.412109
-0.119422 -1.064874 0.840000 1.000000 0.000000 -0.000000 0.996094 0.287109
-0.119422 -1.064874 0.000000 1.000000 0.000000 -0.000000 0.996094 0.000000
-0.119422 -0.996254 0.000000 1.000000 0.000000 -0.000000 0.972656 0.000000
-0.146422 -1.064874 0.605660 1.000000 0.000000 -0.000000 0.304688 0.886719
-0.146422 -1.180065 0.605660 1.000000 0.000000 -0.000000 0.283203 0.886719
-0.146422 -1.180065 0.017660 1.000000 0.000000 -0.000000 0.283203 0.777344
-0.146422 -1.064874 0.017660 1.000000 0.000000 -0.000000 0.304688 0.777344
-0.259822 -1.168546 0.605660 1.000000 0.000000 0.000000 0.074219 0.025391
-0.259822 -1.168546 0.586716 1.000000 0.000000 0.000000 0.083984 0.035156
-0.259822 -1.076393 0.586716 1.000000 0.000000 0.000000 0.083984 0.070312
-0.259822 -1.076393 0.605660 1.000000 0.000000 0.000000 0.074219 0.080078
-0.259534 -1.080145 0.643381 1.000000 0.000000 0.000000 0.082031 0.121094
-0.259534 -1.070085 0.643381 1.000000 0.000000 0.000000 0.087891 0.125000
-0.259534 -1.070085 0.804661 1.000000 0.000000 0.000000 0.087891 0.169922
-0.259534 -1.080145 0.804661 1.000000 0.000000 0.000000 0.082031 0.175781
-0.259822 -1.076393 0.586716 0.000000 0.000000 1.000000 0.083984 0.070312
-0.259822 -1.168546 0.586716 0.000000 0.000000 1.000000 0.083984 0.035156
-0.159022 -1.168546 0.586716 0.000000 0.000000 1.000000 0.123047 0.035156
-0.159022 -1.076394 0.586716 0.000000 0.000000 1.000000 0.123047 0.070312
-0.433000 -1.000000 0.946316 -1.000000 0.000000 -0.000000 0.247729 0.723215
-0.433000 -0.900217 1.122053 -1.000000 0.000000 -0.000000 0.298511 0.752512
-0.433000 -0.900217 0.770579 -1.000000 0.000000 -0.000000 0.196948 0.752512
-1.743511 -0.726263 0.605660 -1.000000 0.000000 0.000000 0.074219 0.025391
-1.743511 -0.726263 0.586716 -1.000000 0.000000 0.000000 0.083984 0.035156
-1.743511 -0.818416 0.586716 -1.000000 0.000000 0.000000 0.083984 0.070312
-1.743511 -0.818416 0.605660 -1.000000 0.000000 0.000000 0.074219 0.080078
-1.567000 -0.900000 0.100000 0.000646 0.999813 0.019314 0.054688 0.011719
-0.433000 -0.900000 0.100000 0.000646 0.999813 0.019314 0.189453 0.011719
1.998868 -0.901736 0.070525 0.000646 0.999813 0.019314 0.479492 0.007812
-2.001109 -0.898244 0.061596 0.000646 0.999813 0.019314 0.003906 0.007812
-0.146782 -1.080145 0.824821 0.000000 -1.000000 0.000000 0.134766 0.183594
-0.159310 -1.080145 0.804661 0.000000 -1.000000 0.000000 0.125000 0.175781
-0.159310 -1.080145 0.643381 0.000000 -1.000000 0.000000 0.125000 0.121094
-0.146782 -1.080145 0.623221 0.000000 -1.000000 0.000000 0.134766 0.109375
-0.272062 -1.080145 0.824821 -0.000000 -1.000000 0.000000 0.070312 0.183594
-0.259534 -1.080145 0.804661 -0.000000 -1.000000 0.000000 0.082031 0.175781
-0.272062 -1.080145 0.623221 0.000000 -1.000000 -0.000000 0.070312 0.109375
-0.259534 -1.080145 0.643381 0.000000 -1.000000 -0.000000 0.082031 0.121094
2.000000 1.000000 0.000000 0.000000 0.000000 -1.000000 0.479688 0.715234
2.000000 -1.000000 0.000000 0.000000 0.000000 -1.000000 0.479688 0.476953
-2.000000 -1.000000 0.000000 0.000000 0.000000 -1.000000 0.003125 0.476953
-2.000000 1.000000 0.000000 0.000000 0.000000 -1.000000 0.003125 0.715234
-0.146422 -1.064874 0.017660 0.000000 0.000000 -1.000000 0.042969 0.808594
-0.146422 -1.180065 0.017660 0.000000 0.000000 -1.000000 0.158203 0.808594
-0.272422 -1.180065 0.017660 0.000000 0.000000 -1.000000 0.158203 0.933594
-0.272422 -1.064874 0.017660 0.000000 0.000000 -1.000000 0.042969 0.933594
-0.433000 -0.952668 0.653421 -1.000000 0.000000 -0.000000 0.163745 0.736887
-0.433000 -0.952668 0.536263 -1.000000 0.000000 -0.000000 0.130542 0.736887
-0.433000 -1.000000 0.100000 -1.000000 0.000000 -0.000000 0.003589 0.723215
-0.433000 -0.900217 1.122053 0.000000 1.000000 -0.000000 0.687116 0.721928
-0.216727 -0.900217 1.122053 0.000000 1.000000 -0.000000 0.687116 0.784428
-0.216840 -0.900217 0.770579 0.000000 1.000000 -0.000000 0.583601 0.784428
-0.433000 -0.900217 0.770579 0.000000 1.000000 -0.000000 0.583601 0.721928
-0.299422 -1.064874 0.000000 -0.000000 0.000000 -1.000000 0.998047 0.982422
-0.299422 -0.996254 0.000000 -0.000000 0.000000 -1.000000 0.998047 0.996094
-0.119422 -0.996254 0.000000 -0.000000 0.000000 -1.000000 0.962891 0.996094
-0.119422 -1.064874 0.000000 -0.000000 0.000000 -1.000000 0.962891 0.982422
-0.299422 -0.996254 1.200000 0.000000 -0.982314 0.187239 0.998047 0.744141
-0.299422 -1.064874 0.840000 0.000000 -0.982314 0.187239 0.998047 0.816406
-0.119422 -1.064874 0.840000 0.000000 -0.982314 0.187239 0.962891 0.816406
-0.119422 -0.996254 1.200000 0.000000 -0.982314 0.187239 0.962891 0.744141
-1.856911 -0.829934 0.605660 -1.000000 0.000000 0.000000 0.304688 0.886719
-1.856911 -0.714743 0.605660 -1.000000 0.000000 0.000000 0.283203 0.886719
-1.856911 -0.714743 0.017660 -1.000000 0.000000 0.000000 0.283203 0.777344
-1.856911 -0.829934 0.017660 -1.000000 0.000000 0.000000 0.304688 0.777344
-1.883911 -0.898554 1.200000 -1.000000 0.000000 0.000000 0.972656 0.412109
-1.883911 -0.829934 0.840000 -1.000000 0.000000 0.000000 0.996094 0.287109
-1.883911 -0.829934 0.000000 -1.000000 0.000000 0.000000 0.996094 0.000000
-1.883911 -0.898554 0.000000 -1.000000 0.000000 0.000000 0.972656 0.000000
-0.433000 -0.952669 1.356368 -1.000000 0.000000 -0.000000 0.366870 0.736887
-0.433000 -0.952669 1.239210 -1.000000 0.000000 -0.000000 0.333667 0.736887
-0.433001 -1.000000 1.700000 -1.000000 0.000000 -0.000000 0.466479 0.723215
-0.272062 -1.064874 0.623221 -1.000000 0.000000 -0.000000 0.062500 0.101562
-0.272062 -1.080145 0.623221 -1.000000 0.000000 -0.000000 0.070312 0.109375
-0.272062 -1.080145 0.824821 -1.000000 0.000000 -0.000000 0.070312 0.183594
-0.272062 -1.064874 0.824821 -1.000000 0.000000 -0.000000 0.062500 0.189453
-0.433000 -0.952668 0.653421 0.002811 0.999996 -0.000247 0.544538 0.721928
-0.216878 -0.953247 0.653421 0.002811 0.999996 -0.000247 0.544538 0.784428
-0.216915 -0.953305 0.536263 0.002811 0.999996 -0.000247 0.511335 0.784428
-0.433000 -0.952668 0.536263 0.002811 0.999996 -0.000247 0.511335 0.721928
-0.433000 -0.900000 1.473526 0.000945 0.912054 -0.410070 0.796491 0.721928
-0.216614 -0.900217 1.473526 0.000945 0.912054 -0.410070 0.796491 0.784428
-0.216651 -0.952900 1.356368 0.000945 0.912054 -0.410070 0.759382 0.784428
-0.433000 -0.952669 1.356368 0.000945 0.912054 -0.410070 0.759382 0.721928
-0.433000 -0.952669 1.239210 0.000610 0.912285 0.409555 0.724226 0.721928
-0.216689 -0.952958 1.239210 0.000610 0.912285 0.409555 0.724226 0.784428
-0.216727 -0.900217 1.122053 0.000610 0.912285 0.409555 0.687116 0.784428
-0.433000 -0.900217 1.122053 0.000610 0.912285 0.409555 0.687116 0.721928
-0.433000 -0.900217 0.770579 0.001221 0.911864 -0.410490 0.583601 0.721928
-0.216840 -0.900217 0.770579 0.001221 0.911864 -0.410490 0.583601 0.784428
-0.216878 -0.953247 0.653421 0.001221 0.911864 -0.410490 0.544538 0.784428
-0.433000 -0.952668 0.653421 0.001221 0.911864 -0.410490 0.544538 0.721928
2.000000 1.000000 0.000000 0.000436 1.000000 0.000337 0.965071 0.007092
-2.000000 1.000000 0.000000 0.000436 1.000000 0.000337 0.965071 0.329358
-1.997747 1.001726 0.051549 0.000436 1.000000 0.000337 0.968977 0.329358
2.002230 0.998234 0.060478 0.000436 1.000000 0.000337 0.968977 0.007092
-0.216953 -0.900694 0.419105 0.002809 0.912156 0.409834 0.472273 0.784428
-0.433000 -0.900000 0.419105 0.002809 0.912156 0.409834 0.472273 0.721928
-0.433000 -0.952668 0.536263 0.002809 0.912156 0.409834 0.511335 0.721928
-0.216915 -0.953305 0.536263 0.002809 0.912156 0.409834 0.511335 0.784428
-1.844023 -0.814664 0.804661 1.000000 0.000000 -0.000000 0.125000 0.175781
-1.844023 -0.824724 0.804661 1.000000 0.000000 -0.000000 0.119141 0.169922
-1.844023 -0.824724 0.643381 1.000000 0.000000 -0.000000 0.119141 0.125000
-1.844023 -0.814664 0.643381 1.000000 0.000000 -0.000000 0.125000 0.121094
-1.731271 -0.829934 0.623221 1.000000 0.000000 0.000000 0.062500 0.101562
-1.731271 -0.814664 0.623221 1.000000 0.000000 0.000000 0.070312 0.109375
-1.731271 -0.814664 0.824821 1.000000 0.000000 0.000000 0.070312 0.183594
-1.731271 -0.829934 0.824821 1.000000 0.000000 0.000000 0.062500 0.189453
-2.000000 1.000000 2.000000 0.000000 1.000000 0.000000 0.971543 0.735727
2.000000 1.000000 2.000000 0.000000 1.000000 0.000000 0.971543 0.413461
2.000000 1.000000 1.900000 0.000000 1.000000 0.000000 0.963731 0.413461
-2.000000 1.000000 1.900000 0.000000 1.000000 0.000000 0.963731 0.735727
2.000000 1.000000 2.000000 0.000000 -0.000000 1.000000 0.960156 0.712891
-2.000000 1.000000 2.000000 0.000000 -0.000000 1.000000 0.483594 0.712891
-2.000000 -1.000000 2.000000 0.000000 -0.000000 1.000000 0.483594 0.476562
1.999999 -1.000001 2.000000 0.000000 -0.000000 1.000000 0.960156 0.476562
-1.844311 -0.818415 0.605660 1.000000 0.000000 0.000000 0.132812 0.080078
-1.844311 -0.818415 0.586716 1.000000 0.000000 0.000000 0.123047 0.070312
-1.844311 -0.726262 0.586716 1.000000 0.000000 0.000000 0.123047 0.035156
-1.844311 -0.726262 0.605660 1.000000 0.000000 0.000000 0.132812 0.025391
-1.730911 -0.829934 0.017660 1.000000 0.000000 0.000000 0.238281 0.777344
-1.730911 -0.714744 0.017660 1.000000 0.000000 0.000000 0.259766 0.777344
-1.730911 -0.714744 0.605660 1.000000 0.000000 0.000000 0.259766 0.886719
-1.730911 -0.829934 0.605660 1.000000 0.000000 0.000000 0.238281 0.886719
-0.216689 -0.952958 1.239210 -1.000000 0.000001 0.000322 0.124239 0.365299
-0.216651 -0.952900 1.356368 -1.000000 0.000001 0.000322 0.124239 0.391100
-0.216614 -0.900217 1.473526 -1.000000 0.000001 0.000322 0.111855 0.415868
-0.216727 -0.900217 1.122053 -1.000000 0.000001 0.000322 0.111855 0.339499
-0.433000 -0.952669 1.356368 0.001204 0.999999 -0.000247 0.759382 0.721928
-0.216651 -0.952900 1.356368 0.001204 0.999999 -0.000247 0.759382 0.784428
-0.216689 -0.952958 1.239210 0.001204 0.999999 -0.000247 0.724226 0.784428
-0.433000 -0.952669 1.239210 0.001204 0.999999 -0.000247 0.724226 0.721928
-1.703911 -0.898554 0.000000 1.000000 0.000000 0.000000 0.998047 0.730469
-1.703911 -0.829934 0.000000 1.000000 0.000000 0.000000 0.974609 0.730469
-1.703911 -0.829934 0.840000 1.000000 0.000000 0.000000 0.974609 0.439453
-1.703911 -0.898554 1.200000 1.000000 0.000000 0.000000 0.998047 0.314453
-0.216840 -0.900217 0.770579 -1.000000 -0.000001 0.000322 0.076910 0.418943
-0.216953 -0.900694 0.419105 -1.000000 -0.000001 0.000322 0.076910 0.342574
-0.216915 -0.953305 0.536263 -1.000000 -0.000001 0.000322 0.088262 0.368375
-0.216878 -0.953247 0.653421 -1.000000 -0.000001 0.000322 0.088262 0.394175
-0.146782 -1.064874 0.824821 1.000000 0.000000 -0.000000 0.142578 0.189453
-0.146782 -1.080145 0.824821 1.000000 0.000000 -0.000000 0.134766 0.183594
-0.146782 -1.080145 0.623221 1.000000 0.000000 -0.000000 0.134766 0.109375
-0.146782 -1.064874 0.623221 1.000000 0.000000 -0.000000 0.142578 0.101562
-0.433001 -1.000000 1.700000 0.000000 -0.000000 -1.000000 0.609955 0.997521
-1.567000 -1.000000 1.700000 0.000000 -0.000000 -1.000000 0.484955 0.997521
-1.567000 -0.900000 1.700000 0.000000 -0.000000 -1.000000 0.484955 0.981896
-0.433001 -0.900000 1.700000 0.000000 -0.000000 -1.000000 0.609955 0.981896
-1.567000 -1.000000 0.100000 0.000000 0.000000 1.000000 0.358001 0.997521
-0.433000 -1.000000 0.100000 0.000000 0.000000 1.000000 0.231048 0.997521
-0.433000 -0.900000 0.100000 0.000000 0.000000 1.000000 0.231048 0.981896
-1.567000 -0.900000 0.100000 0.000000 0.000000 1.000000 0.358001 0.981896
-0.433000 -0.900000 0.100000 -1.000000 -0.000000 -0.000000 0.003589 0.752512
-0.433000 -0.900000 0.419105 -1.000000 -0.000000 -0.000000 0.095386 0.752512
-0.272062 -1.064874 0.824821 0.000000 0.000000 1.000000 0.062500 0.189453
-0.272062 -1.080145 0.824821 0.000000 0.000000 1.000000 0.070312 0.183594
-0.146782 -1.080145 0.824821 0.000000 0.000000 1.000000 0.134766 0.183594
-0.146782 -1.064874 0.824821 0.000000 0.000000 1.000000 0.142578 0.189453
-0.259822 -1.168546 0.586716 0.000005 1.000000 0.000000 0.083984 0.035156
-0.259822 -1.168546 0.605660 0.000005 1.000000 0.000000 0.074219 0.025391
-0.159022 -1.168546 0.605660 0.000005 1.000000 0.000000 0.132812 0.025391
-0.159022 -1.168546 0.586716 0.000005 1.000000 0.000000 0.123047 0.035156
-1.665538 -1.000000 0.000000 0.000000 0.000000 -1.000000 0.160156 0.302734
-1.704470 -1.072959 0.000000 0.000000 0.000000 -1.000000 0.144531 0.330078
-1.862531 -1.072959 0.000000 0.000000 0.000000 -1.000000 0.082031 0.330078
-1.901462 -1.000000 0.000000 0.000000 0.000000 -1.000000 0.068359 0.302734
-1.665538 -1.000000 2.000000 0.882253 -0.470775 0.000000 0.457031 0.921875
-1.704470 -1.072959 1.937828 0.882253 -0.470775 0.000000 0.457031 0.939453
-1.704470 -1.072959 0.000000 0.882253 -0.470775 0.000000 0.228516 0.939453
-1.665538 -1.000000 0.000000 0.882253 -0.470775 0.000000 0.228516 0.921875
2.000000 1.000000 2.000000 1.000000 -0.000001 -0.000000 0.029319 0.990556
1.999999 -1.000001 2.000000 1.000000 -0.000001 -0.000000 0.223216 0.990556
1.999999 -0.900001 1.900000 1.000000 -0.000001 -0.000000 0.213758 0.981097
2.000000 1.000000 1.900000 1.000000 -0.000001 -0.000000 0.029319 0.981097
-1.901463 -1.000000 2.000000 0.000000 -0.648593 0.761136 0.064453 0.291016
-1.862531 -1.072959 1.937828 0.000000 -0.648593 0.761136 0.080078 0.253906
-1.704470 -1.072959 1.937828 0.000000 -0.648593 0.761136 0.140625 0.253906
-1.665538 -1.000000 2.000000 0.000000 -0.648593 0.761136 0.156250 0.291016
-1.743799 -0.824724 0.804661 -0.000000 1.000000 0.000000 0.087891 0.169922
-1.743799 -0.824724 0.643381 -0.000000 1.000000 0.000000 0.087891 0.125000
-1.844023 -0.824724 0.643381 -0.000000 1.000000 0.000000 0.119141 0.125000
-1.844023 -0.824724 0.804661 -0.000000 1.000000 0.000000 0.119141 0.169922
-0.433001 -0.900000 1.700000 -1.000000 0.000001 -0.000000 0.466479 0.752512
-0.433000 -0.900000 1.473526 -1.000000 0.000001 -0.000000 0.400073 0.752512
-0.433000 -0.952669 1.356368 -1.000000 0.000001 -0.000000 0.366870 0.736887
-0.433001 -1.000000 1.700000 -1.000000 0.000001 -0.000000 0.466479 0.723215
-1.703911 -0.829934 0.000000 0.000000 0.000000 -1.000000 0.998047 0.982422
-1.703911 -0.898554 0.000000 0.000000 0.000000 -1.000000 0.998047 0.996094
-1.883911 -0.898554 0.000000 0.000000 0.000000 -1.000000 0.962891 0.996094
-1.883911 -0.829934 0.000000 0.000000 0.000000 -1.000000 0.962891 0.982422
-2.000000 -1.000000 0.000000 -0.999956 0.000886 0.009295 0.005673 0.768284
-2.001109 -0.898244 0.061596 -0.999956 0.000886 0.009295 0.015132 0.779514
-1.997747 1.001726 0.051549 -0.999956 0.000886 0.009295 0.201935 0.779514
-2.000000 1.000000 0.000000 -0.999956 0.000886 0.009295 0.199570 0.768284
-0.299422 -0.996254 0.000000 -1.000000 0.000000 -0.000000 0.998047 0.730469
-0.299422 -1.064874 0.000000 -1.000000 0.000000 -0.000000 0.974609 0.730469
-0.299422 -1.064874 0.840000 -1.000000 0.000000 -0.000000 0.974609 0.439453
-0.299422 -0.996254 1.200000 -1.000000 0.000000 -0.000000 0.998047 0.314453
-1.856911 -0.829934 0.017660 -0.000000 0.000000 -1.000000 0.042969 0.808594
-1.856911 -0.714743 0.017660 -0.000000 0.000000 -1.000000 0.158203 0.808594
-1.730911 -0.714744 0.017660 -0.000000 0.000000 -1.000000 0.158203 0.933594
-1.730911 -0.829934 0.017660 -0.000000 0.000000 -1.000000 0.042969 0.933594
-1.567000 -1.000000 1.700000 1.000000 0.000000 0.000000 0.484955 0.997521
-1.567000 -1.000000 0.100000 1.000000 0.000000 0.000000 0.358001 0.997521
-1.567000 -0.900000 0.100000 1.000000 0.000000 0.000000 0.358001 0.981896
-1.567000 -0.900000 1.700000 1.000000 0.000000 0.000000 0.484955 0.981896
-0.272422 -1.180065 0.605660 0.000000 0.000000 1.000000 0.066406 0.017578
-0.259822 -1.168546 0.605660 0.000000 0.000000 1.000000 0.074219 0.025391
-0.259822 -1.076393 0.605660 0.000000 0.000000 1.000000 0.074219 0.080078
-0.272422 -1.064874 0.605660 0.000000 0.000000 1.000000 0.066406 0.087891
-0.146422 -1.180065 0.605660 -0.000000 0.000000 1.000000 0.140625 0.017578
-0.159022 -1.168546 0.605660 -0.000000 0.000000 1.000000 0.132812 0.025391
-0.146422 -1.064874 0.605660 0.000000 -0.000000 1.000000 0.140625 0.087891
-0.159022 -1.076394 0.605660 0.000000 -0.000000 1.000000 0.132812 0.080078
-2.000000 -1.000000 2.000000 -1.000000 0.000000 0.000000 0.005673 0.962181
-2.000000 1.000000 2.000000 -1.000000 0.000000 0.000000 0.199570 0.962181
-2.000000 1.000000 1.900000 -1.000000 0.000000 0.000000 0.199570 0.948175
-2.000000 -0.900000 1.900000 -1.000000 0.000000 0.000000 0.015132 0.948175
-0.272422 -1.064874 0.017660 -1.000000 0.000000 -0.000000 0.238281 0.777344
-0.272422 -1.180065 0.017660 -1.000000 0.000000 -0.000000 0.259766 0.777344
-0.272422 -1.180065 0.605660 -1.000000 0.000000 -0.000000 0.259766 0.886719
-0.272422 -1.064874 0.605660 -1.000000 0.000000 -0.000000 0.238281 0.886719
-0.259534 -1.070085 0.804661 -0.000000 -1.000000 0.000000 0.087891 0.169922
-0.259534 -1.070085 0.643381 -0.000000 -1.000000 0.000000 0.087891 0.125000
-0.159310 -1.070085 0.643381 -0.000000 -1.000000 0.000000 0.119141 0.125000
-0.159310 -1.070085 0.804661 -0.000000 -1.000000 0.000000 0.119141 0.169922
-1.743511 -0.818416 0.586716 -0.000000 0.000000 1.000000 0.083984 0.070312
-1.743511 -0.726263 0.586716 -0.000000 0.000000 1.000000 0.083984 0.035156
-1.844311 -0.726262 0.586716 -0.000000 0.000000 1.000000 0.123047 0.035156
-1.844311 -0.818415 0.586716 -0.000000 0.000000 1.000000 0.123047 0.070312
-1.731271 -0.829934 0.824821 -0.000000 0.000000 1.000000 0.062500 0.189453
-1.731271 -0.814664 0.824821 -0.000000 0.000000 1.000000 0.070312 0.183594
-1.856551 -0.814664 0.824821 -0.000000 0.000000 1.000000 0.134766 0.183594
-1.856551 -0.829934 0.824821 -0.000000 0.000000 1.000000 0.142578 0.189453
-0.159022 -1.076394 0.605660 -1.000000 0.000000 0.000000 0.132812 0.080078
-0.159022 -1.076394 0.586716 -1.000000 0.000000 0.000000 0.123047 0.070312
-0.159022 -1.168546 0.586716 -1.000000 0.000000 0.000000 0.123047 0.035156
-0.159022 -1.168546 0.605660 -1.000000 0.000000 0.000000 0.132812 0.025391
-1.856551 -0.829934 0.623221 -0.000000 0.000000 -1.000000 0.142578 0.101562
-1.856551 -0.814664 0.623221 -0.000000 0.000000 -1.000000 0.134766 0.109375
-1.731271 -0.814664 0.623221 -0.000000 0.000000 -1.000000 0.070312 0.109375
-1.731271 -0.829934 0.623221 -0.000000 0.000000 -1.000000 0.062500 0.101562
-2.000000 -1.000000 0.000000 -0.999985 -0.005443 0.000286 0.005673 0.768284
-2.000000 -1.000000 2.000000 -0.999985 -0.005443 0.000286 0.005673 0.962181
-2.000000 -0.900000 1.900000 -0.999985 -0.005443 0.000286 0.015132 0.948175
-2.001109 -0.898244 0.061596 -0.999985 -0.005443 0.000286 0.015132 0.779514
-1.856551 -0.814664 0.824821 0.000000 1.000000 -0.000000 0.134766 0.183594
-1.844023 -0.814664 0.804661 0.000000 1.000000 -0.000000 0.125000 0.175781
-1.844023 -0.814664 0.643381 0.000000 1.000000 -0.000000 0.125000 0.121094
-1.856551 -0.814664 0.623221 0.000000 1.000000 -0.000000 0.134766 0.109375
-1.731271 -0.814664 0.824821 -0.000000 1.000000 0.000000 0.070312 0.183594
-1.743799 -0.814664 0.804661 -0.000000 1.000000 0.000000 0.082031 0.175781
-1.731271 -0.814664 0.623221 0.000000 1.000000 0.000000 0.070312 0.109375
-1.743799 -0.814664 0.643381 0.000000 1.000000 0.000000 0.082031 0.121094
-0.159310 -1.080145 0.804661 -1.000000 0.000000 0.000000 0.125000 0.175781
-0.159310 -1.070085 0.804661 -1.000000 0.000000 0.000000 0.119141 0.169922
-0.159310 -1.070085 0.643381 -1.000000 0.000000 0.000000 0.119141 0.125000
-0.159310 -1.080145 0.643381 -1.000000 0.000000 0.000000 0.125000 0.121094
-1.743799 -0.814664 0.804661 0.000000 0.000000 -1.000000 0.082031 0.175781
-1.743799 -0.824724 0.804661 0.000000 0.000000 -1.000000 0.087891 0.169922
-1.844023 -0.824724 0.804661 0.000000 0.000000 -1.000000 0.119141 0.169922
-1.844023 -0.814664 0.804661 0.000000 0.000000 -1.000000 0.125000 0.175781
-1.743799 -0.824724 0.643381 -0.000000 0.000000 1.000000 0.087891 0.125000
-1.743799 -0.814664 0.643381 -0.000000 0.000000 1.000000 0.082031 0.121094
-1.844023 -0.814664 0.643381 -0.000000 0.000000 1.000000 0.125000 0.121094
-1.844023 -0.824724 0.643381 -0.000000 0.000000 1.000000 0.119141 0.125000
-1.703911 -0.898554 1.200000 0.000000 0.982314 0.187239 0.998047 0.744141
-1.703911 -0.829934 0.840000 0.000000 0.982314 0.187239 0.998047 0.816406
-1.883911 -0.829934 0.840000 0.000000 0.982314 0.187239 0.962891 0.816406
-1.883911 -0.898554 1.200000 0.000000 0.982314 0.187239 0.962891 0.744141
-0.146782 -1.064874 0.623221 0.000000 0.000000 -1.000000 0.142578 0.101562
-0.146782 -1.080145 0.623221 0.000000 0.000000 -1.000000 0.134766 0.109375
-0.272062 -1.080145 0.623221 0.000000 0.000000 -1.000000 0.070312 0.109375
-0.272062 -1.064874 0.623221 0.000000 0.000000 -1.000000 0.062500 0.101562
-0.216953 -0.900694 0.419105 0.000200 1.000000 -0.000767 0.214844 0.048828
-0.216614 -0.900217 1.473526 0.000200 1.000000 -0.000767 0.214844 0.175781
1.999999 -0.900001 1.900000 0.000200 1.000000 -0.000767 0.479492 0.226562
1.998868 -0.901736 0.070525 0.000200 1.000000 -0.000767 0.479492 0.007812
1.999999 -0.900001 1.900000 0.000144 1.000000 -0.000820 0.479492 0.226562
-0.216614 -0.900217 1.473526 0.000144 1.000000 -0.000820 0.214844 0.175781
-0.433000 -0.900000 1.473526 0.000144 1.000000 -0.000820 0.189453 0.175781
-0.433001 -0.900000 1.700000 0.000144 1.000000 -0.000820 0.189453 0.203125
-0.433000 -0.900000 0.419105 0.000935 0.999998 0.001543 0.189453 0.048828
-0.216953 -0.900694 0.419105 0.000935 0.999998 0.001543 0.214844 0.048828
1.998868 -0.901736 0.070525 0.000935 0.999998 0.001543 0.479492 0.007812
-0.433000 -0.900000 0.100000 0.000935 0.999998 0.001543 0.189453 0.011719
-2.001109 -0.898244 0.061596 -0.002228 0.005292 0.999984 0.485107 0.007812
1.998868 -0.901736 0.070525 -0.002228 0.005292 0.999984 0.961670 0.007812
2.002230 0.998234 0.060478 -0.002228 0.005292 0.999984 0.961670 0.232422
-1.997747 1.001726 0.051549 -0.002228 0.005292 0.999984 0.485107 0.234375
-0.259822 -1.076393 0.605660 -0.000005 -1.000000 0.000000 0.074219 0.080078
-0.259822 -1.076393 0.586716 -0.000005 -1.000000 0.000000 0.083984 0.070312
-0.159022 -1.076394 0.586716 -0.000005 -1.000000 0.000000 0.123047 0.070312
-0.159022 -1.076394 0.605660 -0.000005 -1.000000 0.000000 0.132812 0.080078
-0.146422 -1.180065 0.017660 -0.000004 -1.000000 0.000000 0.283203 0.777344
-0.146422 -1.180065 0.605660 -0.000004 -1.000000 0.000000 0.283203 0.886719
-0.272422 -1.180065 0.605660 -0.000004 -1.000000 0.000000 0.259766 0.886719
-0.272422 -1.180065 0.017660 -0.000004 -1.000000 0.000000 0.259766 0.777344
-0.299422 -1.064874 0.840000 -0.000000 -1.000000 0.000000 0.998047 0.816406
-0.299422 -1.064874 0.000000 -0.000000 -1.000000 0.000000 0.998047 0.982422
-0.119422 -1.064874 0.000000 -0.000000 -1.000000 0.000000 0.962891 0.982422
-0.119422 -1.064874 0.840000 -0.000000 -1.000000 0.000000 0.962891 0.816406
2.000000 -1.000000 0.000000 -0.000000 -1.000000 -0.000000 0.478516 0.232422
1.999999 -1.000001 2.000000 -0.000000 -1.000000 -0.000000 0.478516 0.470703
-0.433001 -1.000000 1.700000 -0.000000 -1.000000 -0.000000 0.189453 0.435547
-0.433000 -1.000000 0.100000 -0.000000 -1.000000 -0.000000 0.189453 0.246094
-2.000000 -1.000000 2.000000 -0.000000 -1.000000 0.000000 0.001953 0.470703
-2.000000 -1.000000 0.000000 -0.000000 -1.000000 0.000000 0.001953 0.232422
-1.567000 -1.000000 0.100000 -0.000000 -1.000000 0.000000 0.054688 0.246094
-1.567000 -1.000000 1.700000 -0.000000 -1.000000 0.000000 0.054688 0.435547
1.999999 -1.000001 2.000000 -0.000000 -1.000000 0.000001 0.478516 0.470703
-2.000000 -1.000000 2.000000 -0.000000 -1.000000 0.000001 0.001953 0.470703
-1.567000 -1.000000 1.700000 -0.000000 -1.000000 0.000001 0.054688 0.435547
-0.433001 -1.000000 1.700000 -0.000000 -1.000000 0.000001 0.189453 0.435547
-1.862531 -1.072959 1.937828 0.000000 -1.000000 0.000000 0.457031 0.957031
-1.862531 -1.072959 0.000000 0.000000 -1.000000 0.000000 0.228516 0.957031
-1.704470 -1.072959 0.000000 0.000000 -1.000000 0.000000 0.228516 0.939453
-1.704470 -1.072959 1.937828 0.000000 -1.000000 0.000000 0.457031 0.939453
-1.743511 -0.726263 0.586716 -0.000005 -1.000000 0.000000 0.083984 0.035156
-1.743511 -0.726263 0.605660 -0.000005 -1.000000 0.000000 0.074219 0.025391
-1.844311 -0.726262 0.605660 -0.000005 -1.000000 0.000000 0.132812 0.025391
-1.844311 -0.726262 0.586716 -0.000005 -1.000000 0.000000 0.123047 0.035156
-1.743511 -0.818416 0.605660 0.000005 1.000000 0.000000 0.074219 0.080078
-1.743511 -0.818416 0.586716 0.000005 1.000000 0.000000 0.083984 0.070312
-1.844311 -0.818415 0.586716 0.000005 1.000000 0.000000 0.123047 0.070312
-1.844311 -0.818415 0.605660 0.000005 1.000000 0.000000 0.132812 0.080078
-1.730911 -0.829934 0.605660 -0.000000 0.000000 1.000000 0.066406 0.087891
-1.743511 -0.818416 0.605660 -0.000000 0.000000 1.000000 0.074219 0.080078
-1.844311 -0.818415 0.605660 -0.000000 0.000000 1.000000 0.132812 0.080078
-1.856911 -0.829934 0.605660 -0.000000 0.000000 1.000000 0.140625 0.087891
-1.844311 -0.726262 0.605660 0.000000 0.000000 1.000000 0.132812 0.025391
-1.856911 -0.714743 0.605660 0.000000 0.000000 1.000000 0.140625 0.017578
-1.743511 -0.726263 0.605660 0.000000 0.000000 1.000000 0.074219 0.025391
-1.730911 -0.714744 0.605660 0.000000 0.000000 1.000000 0.066406 0.017578
-1.856551 -0.829934 0.824821 -1.000000 0.000000 0.000000 0.142578 0.189453
-1.856551 -0.814664 0.824821 -1.000000 0.000000 0.000000 0.134766 0.183594
-1.856551 -0.814664 0.623221 -1.000000 0.000000 0.000000 0.134766 0.109375
-1.856551 -0.829934 0.623221 -1.000000 0.000000 0.000000 0.142578 0.101562
-1.743799 -0.814664 0.643381 -1.000000 0.000000 -0.000000 0.082031 0.121094
-1.743799 -0.824724 0.643381 -1.000000 0.000000 -0.000000 0.087891 0.125000
-1.743799 -0.824724 0.804661 -1.000000 0.000000 -0.000000 0.087891 0.169922
-1.743799 -0.814664 0.804661 -1.000000 0.000000 -0.000000 0.082031 0.175781
-1.901462 -1.000000 0.000000 -0.882254 -0.470774 -0.000000 0.228516 0.976562
-1.862531 -1.072959 0.000000 -0.882254 -0.470774 -0.000000 0.228516 0.957031
-1.862531 -1.072959 1.937828 -0.882254 -0.470774 -0.000000 0.457031 0.957031
-1.901463 -1.000000 2.000000 -0.882254 -0.470774 -0.000000 0.457031 0.976562
2.000000 1.000000 0.000000 0.999970 -0.000882 -0.007729 0.029319 0.794294
2.002230 0.998234 0.060478 0.999970 -0.000882 -0.007729 0.029319 0.801388
1.998868 -0.901736 0.070525 0.999970 -0.000882 -0.007729 0.213758 0.801388
2.000000 -1.000000 0.000000 0.999970 -0.000882 -0.007729 0.223216 0.794294
1.999999 -1.000001 2.000000 0.999984 0.005665 -0.000298 0.223216 0.990556
2.000000 -1.000000 0.000000 0.999984 0.005665 -0.000298 0.223216 0.794294
1.998868 -0.901736 0.070525 0.999984 0.005665 -0.000298 0.213758 0.801388
1.999999 -0.900001 1.900000 0.999984 0.005665 -0.000298 0.213758 0.981097
2.000000 1.000000 1.900000 0.000000 0.000000 -1.000000 0.960938 0.466797
1.999999 -0.900001 1.900000 0.000000 0.000000 -1.000000 0.960938 0.240234
-2.000000 -0.900000 1.900000 0.000000 0.000000 -1.000000 0.484375 0.240234
-2.000000 1.000000 1.900000 0.000000 0.000000 -1.000000 0.484375 0.466797
4 0 1 2 3
4 4 5 6 7
4 8 9 10 11
4 12 13 14 15
4 16 17 18 19
4 20 21 22 23
4 24 25 26 27
4 28 29 30 31
4 32 33 34 35
4 36 37 38 39
4 40 41 42 43
3 44 45 46
4 47 48 49 50
4 51 52 53 54
4 55 56 57 58
4 59 60 56 55
4 61 62 60 59
4 58 57 62 61
4 63 64 65 66
4 67 68 69 70
4 71 72 73 44
4 74 75 76 77
4 78 79 80 81
4 82 83 84 85
3 46 71 44
4 86 87 88 89
4 90 91 92 93
4 94 95 44 96
4 97 98 99 100
4 101 102 103 104
4 105 106 107 108
4 109 110 111 112
4 113 114 115 116
4 117 118 119 120
4 121 122 123 124
4 125 126 127 128
4 129 130 131 132
3 95 45 44
4 133 134 135 136
4 137 138 139 140
4 141 142 143 144
4 145 146 147 148
4 149 150 151 152
4 153 154 155 156
4 157 158 159 160
4 161 162 163 164
4 165 166 167 168
4 169 170 171 172
4 173 174 175 176
4 177 73 72 178
4 179 180 181 182
4 183 184 185 186
4 187 188 189 190
4 191 192 193 194
4 195 196 197 198
4 199 200 201 202
4 203 204 205 206
4 207 208 209 210
4 211 212 213 214
4 215 216 217 218
4 219 220 221 222
4 223 224 225 226
4 227 228 229 230
4 231 232 233 234
4 235 236 232 231
4 237 238 236 235
4 234 233 238 237
4 239 240 241 242
4 243 244 245 246
4 247 248 249 250
4 251 252 253 254
4 255 256 257 258
4 259 260 261 262
4 263 264 265 266
4 267 268 269 270
4 271 272 273 274
4 275 276 272 271
4 277 278 276 275
4 279 280 281 282
4 283 284 285 286
4 287 288 289 290
4 291 292 293 294
4 295 296 297 298
4 299 300 301 302
4 303 304 305 306
4 307 308 309 310
4 311 312 313 314
4 315 316 317 318
4 319 320 321 322
4 323 324 325 326
4 327 328 329 330
4 331 332 333 334
4 332 327 330 333
4 335 336 337 338
4 339 340 341 342
4 343 344 345 346
4 347 348 349 350
4 351 352 353 354
4 354 353 355 356
4 356 355 357 358
4 358 357 352 351
4 274 273 278 277
4 359 360 361 362
4 363 364 365 366
4 367 368 369 370
4 371 372 373 374
4 375 376 377 378
4 379 380 381 382
