  0
SECTION
  2
HEADER
  9
$ACADVER
  1
AC1009
  9
$INSBASE
 10
0.0
 20
0.0
 30
0.0
  9
$EXTMIN
 10
0.0
 20
0.0
 30
0.0
  9
$EXTMAX
 10
0.0
 20
0.0
 30
0.0
  0
ENDSEC
  0
SECTION
  2
TABLES
  0
TABLE
  2
VPORT
 70
1
  0
VPORT
  2
*ACTIVE
 70
0
 10
0.0
 20
0.0
 11
1.0
 21
1.0
 12
-5.0
 22
1.0
 13
0.0
 23
0.0
 14
0.1
 24
0.1
 15
0.1
 25
0.1
 16
0.0
 26
0.0
 36
1.0
 17
0.0
 27
0.0
 37
0.0
 40
10.0
 41
1.0
 42
50.0
 43
0.0
 44
0.0
 50
0.0
 51
0.0
 71
0
 72
100
 73
1
 74
1
 75
0
 76
0
 77
0
 78
0
  0
ENDTAB
  0
TABLE
  2
LTYPE
 70
8
  0
LTYPE
  2
CONTINUOUS
 70
0
  3
Solid line
 72
65
 73
0
 40
0.0
  0
LTYPE
  2
DOT
 70
0
  3
. . . . . . .
 72
65
 73
2
 40
0.25
 49
0.0
 49
-0.25
  0
LTYPE
  2
DASHED
 70
0
  3
__ __ __ __ __
 72
65
 73
2
 40
0.8
 49
0.5
 49
-0.3
  0
LTYPE
  2
DASHDOT
 70
0
  3
__ . __ . __ .
 72
65
 73
4
 40
1.0
 49
0.5
 49
-0.25
 49
0.0
 49
-0.25
  0
LTYPE
  2
DIVIDE
 70
0
  3
____ . . ____ . . 
 72
65
 73
6
 40
1.25
 49
0.5
 49
-0.25
 49
0.0
 49
-0.25
 49
0.0
 49
-0.25
  0
LTYPE
  2
BORDER
 70
0
  3
__ __ . __ __ . 
 72
65
 73
6
 40
1.75
 49
0.5
 49
-0.25
 49
0.5
 49
-0.25
 49
0.0
 49
-0.25
  0
LTYPE
  2
HIDDEN
 70
0
  3
__ __ __ __ __
 72
65
 73
2
 40
0.4
 49
0.25
 49
-0.25
  0
LTYPE
  2
CENTER
 70
0
  3
____ _ ____ _ __
 72
65
 73
4
 40
2.0
 49
1.25
 49
-0.25
 49
0.25
 49
-0.25
  0
ENDTAB
  0
TABLE
  2
LAYER
 70
1
  0
LAYER
  2
PYDXF
 70
64
 62
7
  6
continuous
  0
ENDTAB
  0
TABLE
  2
STYLE
 70
1
  0
STYLE
  2
STANDARD
 70
0
 40
0
 41
1.0
 50
0.0
 71
0
 42
1
 3
ARIAL.TTF
 4

  0
ENDTAB
  0
TABLE
  2
VIEW
 70
1
  0
VIEW
  2
BF_TOPVIEW
 70
0
 40
120.0
 10
0.0
 20
0.0
 41
200.0
 11
0.0
 21
0.0
 31
1.0
 12
0.0
 22
0.0
 32
0.0
 42
50.0
 43
0.0
 44
0.0
 50
0.0
 71
0
  0
ENDTAB
  0
ENDSEC
  0
SECTION
  2
BLOCKS
  0
ENDSEC
  0
SECTION
  2
ENTITIES
  0
3DFACE
  8
0
 10
-1.8569107055664062
 20
-0.7147434949874878
 30
0.01765960454940796
 11
-1.8569107055664062
 21
-0.7147434949874878
 31
0.6056596040725708
 12
-1.7309107780456543
 22
-0.714743971824646
 32
0.6056596040725708
 13
-1.7309107780456543
 23
-0.714743971824646
 33
0.01765960454940796
  0
3DFACE
  8
0
 10
-0.25953418016433716
 20
-1.070085048675537
 30
0.6433809399604797
 11
-0.25953418016433716
 21
-1.0801448822021484
 31
0.6433809399604797
 12
-0.15931016206741333
 22
-1.0801448822021484
 32
0.6433809399604797
 13
-0.15931016206741333
 23
-1.070085048675537
 33
0.6433809399604797
  0
3DFACE
  8
0
 10
-0.25953418016433716
 20
-1.0801448822021484
 30
0.804660975933075
 11
-0.25953418016433716
 21
-1.070085048675537
 31
0.804660975933075
 12
-0.15931016206741333
 22
-1.070085048675537
 32
0.804660975933075
 13
-0.15931016206741333
 23
-1.0801448822021484
 33
0.804660975933075
  0
3DFACE
  8
0
 10
-1.7039105892181396
 20
-0.8299344778060913
 30
0.8400000333786011
 11
-1.7039105892181396
 21
-0.8299344778060913
 31
0.0
 12
-1.8839106559753418
 22
-0.8299344778060913
 32
0.0
 13
-1.8839106559753418
 23
-0.8299344778060913
 33
0.8400000333786011
  0
3DFACE
  8
0
 10
1.9999992847442627
 20
-0.9000005722045898
 30
1.899999976158142
 11
-0.43300050497055054
 21
-0.9000004529953003
 31
1.7000000476837158
 12
-1.567000389099121
 22
-0.8999996781349182
 32
1.7000000476837158
 13
-2.000000238418579
 23
-0.8999996781349182
 33
1.899999976158142
  0
3DFACE
  8
0
 10
-1.567000389099121
 20
-0.8999996781349182
 30
1.7000000476837158
 11
-1.567000150680542
 21
-0.8999997973442078
 31
0.09999996423721313
 12
-2.0011091232299805
 22
-0.8982442617416382
 32
0.06159555912017822
 13
-2.000000238418579
 23
-0.8999996781349182
 33
1.899999976158142
  0
3DFACE
  8
0
 10
-0.11942213773727417
 20
-0.9962544441223145
 30
1.2000000476837158
 11
-0.11942213773727417
 21
-1.0648741722106934
 31
0.8400000333786011
 12
-0.11942213773727417
 22
-1.0648741722106934
 32
0.0
 13
-0.11942213773727417
 23
-0.9962544441223145
 33
0.0
  0
3DFACE
  8
0
 10
-0.14642220735549927
 20
-1.0648741722106934
 30
0.6056596040725708
 11
-0.14642220735549927
 21
-1.1800651550292969
 31
0.6056596040725708
 12
-0.14642220735549927
 22
-1.1800651550292969
 32
0.01765960454940796
 13
-0.14642220735549927
 23
-1.0648741722106934
 33
0.01765960454940796
  0
3DFACE
  8
0
 10
-0.25982218980789185
 20
-1.1685457229614258
 30
0.6056596040725708
 11
-0.25982218980789185
 21
-1.1685457229614258
 31
0.586715579032898
 12
-0.25982218980789185
 22
-1.0763931274414062
 32
0.586715579032898
 13
-0.25982218980789185
 23
-1.0763931274414062
 33
0.6056596040725708
  0
3DFACE
  8
0
 10
-0.25953418016433716
 20
-1.0801448822021484
 30
0.6433809399604797
 11
-0.25953418016433716
 21
-1.070085048675537
 31
0.6433809399604797
 12
-0.25953418016433716
 22
-1.070085048675537
 32
0.804660975933075
 13
-0.25953418016433716
 23
-1.0801448822021484
 33
0.804660975933075
  0
3DFACE
  8
0
 10
-0.25982218980789185
 20
-1.0763931274414062
 30
0.586715579032898
 11
-0.25982218980789185
 21
-1.1685457229614258
 31
0.586715579032898
 12
-0.15902215242385864
 22
-1.168546199798584
 32
0.586715579032898
 13
-0.15902215242385864
 23
-1.0763936042785645
 33
0.586715579032898
  0
3DFACE
  8
0
 10
-0.4330003261566162
 20
-1.000000238418579
 30
0.9463156461715698
 11
-0.433000385761261
 21
-0.9002171754837036
 31
1.122052550315857
 12
-0.43300026655197144
 22
-0.9002171754837036
 32
0.7705787420272827
 13
-0.43300026655197144
 23
-0.9002171754837036
 33
0.7705787420272827
  0
3DFACE
  8
0
 10
-1.7435107231140137
 20
-0.7262629270553589
 30
0.6056596040725708
 11
-1.7435107231140137
 21
-0.7262629270553589
 31
0.586715579032898
 12
-1.7435107231140137
 22
-0.8184155225753784
 32
0.586715579032898
 13
-1.7435107231140137
 23
-0.8184155225753784
 33
0.6056596040725708
  0
3DFACE
  8
0
 10
-1.567000150680542
 20
-0.8999997973442078
 30
0.09999996423721313
 11
-0.4330001473426819
 21
-0.8999999165534973
 31
0.09999996423721313
 12
1.9988679885864258
 22
-0.9017357230186462
 32
0.07052481174468994
 13
-2.0011091232299805
 23
-0.8982442617416382
 33
0.06159555912017822
  0
3DFACE
  8
0
 10
-0.14678210020065308
 20
-1.0801448822021484
 30
0.8248209953308105
 11
-0.15931016206741333
 21
-1.0801448822021484
 31
0.804660975933075
 12
-0.15931016206741333
 22
-1.0801448822021484
 32
0.6433809399604797
 13
-0.14678210020065308
 23
-1.0801448822021484
 33
0.6232209205627441
  0
3DFACE
  8
0
 10
-0.2720622420310974
 20
-1.0801448822021484
 30
0.8248209953308105
 11
-0.25953418016433716
 21
-1.0801448822021484
 31
0.804660975933075
 12
-0.15931016206741333
 22
-1.0801448822021484
 32
0.804660975933075
 13
-0.14678210020065308
 23
-1.0801448822021484
 33
0.8248209953308105
  0
3DFACE
  8
0
 10
-0.2720622420310974
 20
-1.0801448822021484
 30
0.6232209205627441
 11
-0.25953418016433716
 21
-1.0801448822021484
 31
0.6433809399604797
 12
-0.25953418016433716
 22
-1.0801448822021484
 32
0.804660975933075
 13
-0.2720622420310974
 23
-1.0801448822021484
 33
0.8248209953308105
  0
3DFACE
  8
0
 10
-0.14678210020065308
 20
-1.0801448822021484
 30
0.6232209205627441
 11
-0.15931016206741333
 21
-1.0801448822021484
 31
0.6433809399604797
 12
-0.25953418016433716
 22
-1.0801448822021484
 32
0.6433809399604797
 13
-0.2720622420310974
 23
-1.0801448822021484
 33
0.6232209205627441
  0
3DFACE
  8
0
 10
2.0
 20
1.0
 30
0.0
 11
2.0
 21
-0.9999999403953552
 31
0.0
 12
-2.0
 22
-0.9999998211860657
 32
0.0
 13
-1.9999995231628418
 23
1.0000003576278687
 33
0.0
  0
3DFACE
  8
0
 10
-0.14642220735549927
 20
-1.0648741722106934
 30
0.01765960454940796
 11
-0.14642220735549927
 21
-1.1800651550292969
 31
0.01765960454940796
 12
-0.2724221348762512
 22
-1.1800646781921387
 32
0.01765960454940796
 13
-0.2724221348762512
 23
-1.0648741722106934
 33
0.01765960454940796
  0
3DFACE
  8
0
 10
-0.43300026655197144
 20
-0.9526683688163757
 30
0.6534208059310913
 11
-0.43300020694732666
 21
-0.9526683688163757
 31
0.5362628698348999
 12
-0.4330001473426819
 22
-0.9999999403953552
 32
0.09999996423721313
 13
-0.4330003261566162
 23
-1.000000238418579
 33
0.9463156461715698
  0
3DFACE
  8
0
 10
-0.433000385761261
 20
-0.9002171754837036
 30
1.122052550315857
 11
-0.21672677993774414
 21
-0.9002171754837036
 31
1.122052550315857
 12
-0.21683990955352783
 22
-0.9002171754837036
 32
0.7705787420272827
 13
-0.43300026655197144
 23
-0.9002171754837036
 33
0.7705787420272827
  0
3DFACE
  8
0
 10
-0.2994222044944763
 20
-1.0648741722106934
 30
0.0
 11
-0.2994222044944763
 21
-0.9962544441223145
 31
0.0
 12
-0.11942213773727417
 22
-0.9962544441223145
 32
0.0
 13
-0.11942213773727417
 23
-1.0648741722106934
 33
0.0
  0
3DFACE
  8
0
 10
-0.2994222044944763
 20
-0.9962544441223145
 30
1.2000000476837158
 11
-0.2994222044944763
 21
-1.0648741722106934
 31
0.8400000333786011
 12
-0.11942213773727417
 22
-1.0648741722106934
 32
0.8400000333786011
 13
-0.11942213773727417
 23
-0.9962544441223145
 33
1.2000000476837158
  0
3DFACE
  8
0
 10
-0.43300026655197144
 20
-0.9002171754837036
 30
0.7705787420272827
 11
-0.43300026655197144
 21
-0.9526683688163757
 31
0.6534208059310913
 12
-0.4330003261566162
 22
-1.000000238418579
 32
0.9463156461715698
 13
-0.4330003261566162
 23
-1.000000238418579
 33
0.9463156461715698
  0
3DFACE
  8
0
 10
-1.8569107055664062
 20
-0.8299344778060913
 30
0.6056596040725708
 11
-1.8569107055664062
 21
-0.7147434949874878
 31
0.6056596040725708
 12
-1.8569107055664062
 22
-0.7147434949874878
 32
0.01765960454940796
 13
-1.8569107055664062
 23
-0.8299344778060913
 33
0.01765960454940796
  0
3DFACE
  8
0
 10
-1.8839106559753418
 20
-0.8985542058944702
 30
1.2000000476837158
 11
-1.8839106559753418
 21
-0.8299344778060913
 31
0.8400000333786011
 12
-1.8839106559753418
 22
-0.8299344778060913
 32
0.0
 13
-1.8839106559753418
 23
-0.8985542058944702
 33
0.0
  0
3DFACE
  8
0
 10
-0.43300044536590576
 20
-0.9526685476303101
 30
1.3563683032989502
 11
-0.433000385761261
 21
-0.9526685476303101
 31
1.2392103672027588
 12
-0.4330003261566162
 22
-1.000000238418579
 32
0.9463156461715698
 13
-0.4330005645751953
 23
-1.0000004768371582
 33
1.7000000476837158
  0
3DFACE
  8
0
 10
-0.2720622420310974
 20
-1.0648741722106934
 30
0.6232209205627441
 11
-0.2720622420310974
 21
-1.0801448822021484
 31
0.6232209205627441
 12
-0.2720622420310974
 22
-1.0801448822021484
 32
0.8248209953308105
 13
-0.2720622420310974
 23
-1.0648741722106934
 33
0.8248209953308105
  0
3DFACE
  8
0
 10
-0.43300026655197144
 20
-0.9526683688163757
 30
0.6534208059310913
 11
-0.21687757968902588
 21
-0.9532470107078552
 31
0.6534208059310913
 12
-0.2169153094291687
 22
-0.9533048272132874
 32
0.5362628698348999
 13
-0.43300020694732666
 23
-0.9526683688163757
 33
0.5362628698348999
  0
3DFACE
  8
0
 10
-0.43300044536590576
 20
-0.9000003337860107
 30
1.4735262393951416
 11
-0.21661370992660522
 21
-0.9002171754837036
 31
1.4735262393951416
 12
-0.21665143966674805
 22
-0.9529000520706177
 32
1.3563683032989502
 13
-0.43300044536590576
 23
-0.9526685476303101
 33
1.3563683032989502
  0
3DFACE
  8
0
 10
-0.433000385761261
 20
-0.9526685476303101
 30
1.2392103672027588
 11
-0.2166891098022461
 21
-0.9529578685760498
 31
1.2392103672027588
 12
-0.21672677993774414
 22
-0.9002171754837036
 32
1.122052550315857
 13
-0.433000385761261
 23
-0.9002171754837036
 33
1.122052550315857
  0
3DFACE
  8
0
 10
-0.43300026655197144
 20
-0.9002171754837036
 30
0.7705787420272827
 11
-0.21683990955352783
 21
-0.9002171754837036
 31
0.7705787420272827
 12
-0.21687757968902588
 22
-0.9532470107078552
 32
0.6534208059310913
 13
-0.43300026655197144
 23
-0.9526683688163757
 33
0.6534208059310913
  0
3DFACE
  8
0
 10
2.0
 20
1.0
 30
0.0
 11
-1.9999995231628418
 21
1.0000003576278687
 31
0.0
 12
-1.9977469444274902
 22
1.0017262697219849
 32
0.05154883861541748
 13
2.002229690551758
 23
0.9982343912124634
 33
0.060478031635284424
  0
3DFACE
  8
0
 10
-0.21695303916931152
 20
-0.9006943702697754
 30
0.4191049337387085
 11
-0.43300020694732666
 21
-0.9000000357627869
 31
0.4191049337387085
 12
-0.43300020694732666
 22
-0.9526683688163757
 32
0.5362628698348999
 13
-0.2169153094291687
 23
-0.9533048272132874
 33
0.5362628698348999
  0
3DFACE
  8
0
 10
-1.8440227508544922
 20
-0.8146637678146362
 30
0.804660975933075
 11
-1.8440227508544922
 21
-0.8247236013412476
 31
0.804660975933075
 12
-1.8440227508544922
 22
-0.8247236013412476
 32
0.6433809399604797
 13
-1.8440227508544922
 23
-0.8146637678146362
 33
0.6433809399604797
  0
3DFACE
  8
0
 10
-1.7312705516815186
 20
-0.8299344778060913
 30
0.6232209205627441
 11
-1.7312705516815186
 21
-0.8146637678146362
 31
0.6232209205627441
 12
-1.7312705516815186
 22
-0.8146637678146362
 32
0.8248209953308105
 13
-1.7312705516815186
 23
-0.8299344778060913
 33
0.8248209953308105
  0
3DFACE
  8
0
 10
-0.433000385761261
 20
-0.9526685476303101
 30
1.2392103672027588
 11
-0.433000385761261
 21
-0.9002171754837036
 31
1.122052550315857
 12
-0.4330003261566162
 22
-1.000000238418579
 32
0.9463156461715698
 13
-0.4330003261566162
 23
-1.000000238418579
 33
0.9463156461715698
  0
3DFACE
  8
0
 10
-2.0
 20
1.0
 30
2.0
 11
2.000000476837158
 21
0.9999995231628418
 31
2.0
 12
2.000000476837158
 22
0.9999995231628418
 32
1.899999976158142
 13
-2.0
 23
1.0
 33
1.899999976158142
  0
3DFACE
  8
0
 10
2.000000476837158
 20
0.9999995231628418
 30
2.0
 11
-2.0
 21
1.0
 31
2.0
 12
-2.000000238418579
 22
-0.9999996423721313
 32
2.0
 13
1.9999992847442627
 23
-1.0000005960464478
 33
2.0
  0
3DFACE
  8
0
 10
-1.8443107604980469
 20
-0.8184150457382202
 30
0.6056596040725708
 11
-1.8443107604980469
 21
-0.8184150457382202
 31
0.586715579032898
 12
-1.8443107604980469
 22
-0.7262624502182007
 32
0.586715579032898
 13
-1.8443107604980469
 23
-0.7262624502182007
 33
0.6056596040725708
  0
3DFACE
  8
0
 10
-1.7309107780456543
 20
-0.8299344778060913
 30
0.01765960454940796
 11
-1.7309107780456543
 21
-0.714743971824646
 31
0.01765960454940796
 12
-1.7309107780456543
 22
-0.714743971824646
 32
0.6056596040725708
 13
-1.7309107780456543
 23
-0.8299344778060913
 33
0.6056596040725708
  0
3DFACE
  8
0
 10
-0.2166891098022461
 20
-0.9529578685760498
 30
1.2392103672027588
 11
-0.21665143966674805
 21
-0.9529000520706177
 31
1.3563683032989502
 12
-0.21661370992660522
 22
-0.9002171754837036
 32
1.4735262393951416
 13
-0.21672677993774414
 23
-0.9002171754837036
 33
1.122052550315857
  0
3DFACE
  8
0
 10
-0.43300044536590576
 20
-0.9526685476303101
 30
1.3563683032989502
 11
-0.21665143966674805
 21
-0.9529000520706177
 31
1.3563683032989502
 12
-0.2166891098022461
 22
-0.9529578685760498
 32
1.2392103672027588
 13
-0.433000385761261
 23
-0.9526685476303101
 33
1.2392103672027588
  0
3DFACE
  8
0
 10
-1.7039105892181396
 20
-0.8985542058944702
 30
0.0
 11
-1.7039105892181396
 21
-0.8299344778060913
 31
0.0
 12
-1.7039105892181396
 22
-0.8299344778060913
 32
0.8400000333786011
 13
-1.7039105892181396
 23
-0.8985542058944702
 33
1.2000000476837158
  0
3DFACE
  8
0
 10
-0.21683990955352783
 20
-0.9002171754837036
 30
0.7705787420272827
 11
-0.21695303916931152
 21
-0.9006943702697754
 31
0.4191049337387085
 12
-0.2169153094291687
 22
-0.9533048272132874
 32
0.5362628698348999
 13
-0.21687757968902588
 23
-0.9532470107078552
 33
0.6534208059310913
  0
3DFACE
  8
0
 10
-0.14678210020065308
 20
-1.0648741722106934
 30
0.8248209953308105
 11
-0.14678210020065308
 21
-1.0801448822021484
 31
0.8248209953308105
 12
-0.14678210020065308
 22
-1.0801448822021484
 32
0.6232209205627441
 13
-0.14678210020065308
 23
-1.0648741722106934
 33
0.6232209205627441
  0
3DFACE
  8
0
 10
-0.4330005645751953
 20
-1.0000004768371582
 30
1.7000000476837158
 11
-1.567000389099121
 21
-0.9999997019767761
 31
1.7000000476837158
 12
-1.567000389099121
 22
-0.8999996781349182
 32
1.7000000476837158
 13
-0.43300050497055054
 23
-0.9000004529953003
 33
1.7000000476837158
  0
3DFACE
  8
0
 10
-1.567000150680542
 20
-0.9999998211860657
 30
0.09999996423721313
 11
-0.4330001473426819
 21
-0.9999999403953552
 31
0.09999996423721313
 12
-0.4330001473426819
 22
-0.8999999165534973
 32
0.09999996423721313
 13
-1.567000150680542
 23
-0.8999997973442078
 33
0.09999996423721313
  0
3DFACE
  8
0
 10
-0.4330001473426819
 20
-0.8999999165534973
 30
0.09999996423721313
 11
-0.4330001473426819
 21
-0.9999999403953552
 31
0.09999996423721313
 12
-0.43300020694732666
 22
-0.9526683688163757
 32
0.5362628698348999
 13
-0.43300020694732666
 23
-0.9000000357627869
 33
0.4191049337387085
  0
3DFACE
  8
0
 10
-0.2720622420310974
 20
-1.0648741722106934
 30
0.8248209953308105
 11
-0.2720622420310974
 21
-1.0801448822021484
 31
0.8248209953308105
 12
-0.14678210020065308
 22
-1.0801448822021484
 32
0.8248209953308105
 13
-0.14678210020065308
 23
-1.0648741722106934
 33
0.8248209953308105
  0
3DFACE
  8
0
 10
-0.25982218980789185
 20
-1.1685457229614258
 30
0.586715579032898
 11
-0.25982218980789185
 21
-1.1685457229614258
 31
0.6056596040725708
 12
-0.15902215242385864
 22
-1.168546199798584
 32
0.6056596040725708
 13
-0.15902215242385864
 23
-1.168546199798584
 33
0.586715579032898
  0
3DFACE
  8
0
 10
-1.66553795337677
 20
-0.9999998211860657
 30
0.0
 11
-1.7044695615768433
 21
-1.0729594230651855
 31
0.0
 12
-1.8625309467315674
 22
-1.0729594230651855
 32
0.0
 13
-1.9014623165130615
 23
-0.9999998211860657
 33
0.0
  0
3DFACE
  8
0
 10
-1.6655380725860596
 20
-0.9999997019767761
 30
2.0
 11
-1.7044696807861328
 21
-1.0729591846466064
 31
1.9378284215927124
 12
-1.7044695615768433
 22
-1.0729594230651855
 32
0.0
 13
-1.66553795337677
 23
-0.9999998211860657
 33
0.0
  0
3DFACE
  8
0
 10
2.000000476837158
 20
0.9999995231628418
 30
2.0
 11
1.9999992847442627
 21
-1.0000005960464478
 31
2.0
 12
1.9999992847442627
 22
-0.9000005722045898
 32
1.899999976158142
 13
2.000000476837158
 23
0.9999995231628418
 33
1.899999976158142
  0
3DFACE
  8
0
 10
-1.9014625549316406
 20
-0.9999997019767761
 30
2.0
 11
-1.8625309467315674
 21
-1.0729591846466064
 31
1.9378284215927124
 12
-1.7044696807861328
 22
-1.0729591846466064
 32
1.9378284215927124
 13
-1.6655380725860596
 23
-0.9999997019767761
 33
2.0
  0
3DFACE
  8
0
 10
-1.7437987327575684
 20
-0.8247236013412476
 30
0.804660975933075
 11
-1.7437987327575684
 21
-0.8247236013412476
 31
0.6433809399604797
 12
-1.8440227508544922
 22
-0.8247236013412476
 32
0.6433809399604797
 13
-1.8440227508544922
 23
-0.8247236013412476
 33
0.804660975933075
  0
3DFACE
  8
0
 10
-0.43300050497055054
 20
-0.9000004529953003
 30
1.7000000476837158
 11
-0.43300044536590576
 21
-0.9000003337860107
 31
1.4735262393951416
 12
-0.43300044536590576
 22
-0.9526685476303101
 32
1.3563683032989502
 13
-0.4330005645751953
 23
-1.0000004768371582
 33
1.7000000476837158
  0
3DFACE
  8
0
 10
-1.7039105892181396
 20
-0.8299344778060913
 30
0.0
 11
-1.7039105892181396
 21
-0.8985542058944702
 31
0.0
 12
-1.8839106559753418
 22
-0.8985542058944702
 32
0.0
 13
-1.8839106559753418
 23
-0.8299344778060913
 33
0.0
  0
3DFACE
  8
0
 10
-2.0
 20
-0.9999998211860657
 30
0.0
 11
-2.0011091232299805
 21
-0.8982442617416382
 31
0.06159555912017822
 12
-1.9977469444274902
 22
1.0017262697219849
 32
0.05154883861541748
 13
-1.9999995231628418
 23
1.0000003576278687
 33
0.0
  0
3DFACE
  8
0
 10
-0.2994222044944763
 20
-0.9962544441223145
 30
0.0
 11
-0.2994222044944763
 21
-1.0648741722106934
 31
0.0
 12
-0.2994222044944763
 22
-1.0648741722106934
 32
0.8400000333786011
 13
-0.2994222044944763
 23
-0.9962544441223145
 33
1.2000000476837158
  0
3DFACE
  8
0
 10
-1.8569107055664062
 20
-0.8299344778060913
 30
0.01765960454940796
 11
-1.8569107055664062
 21
-0.7147434949874878
 31
0.01765960454940796
 12
-1.7309107780456543
 22
-0.714743971824646
 32
0.01765960454940796
 13
-1.7309107780456543
 23
-0.8299344778060913
 33
0.01765960454940796
  0
3DFACE
  8
0
 10
-1.567000389099121
 20
-0.9999997019767761
 30
1.7000000476837158
 11
-1.567000150680542
 21
-0.9999998211860657
 31
0.09999996423721313
 12
-1.567000150680542
 22
-0.8999997973442078
 32
0.09999996423721313
 13
-1.567000389099121
 23
-0.8999996781349182
 33
1.7000000476837158
  0
3DFACE
  8
0
 10
-0.2724221348762512
 20
-1.1800646781921387
 30
0.6056596040725708
 11
-0.25982218980789185
 21
-1.1685457229614258
 31
0.6056596040725708
 12
-0.25982218980789185
 22
-1.0763931274414062
 32
0.6056596040725708
 13
-0.2724221348762512
 23
-1.0648741722106934
 33
0.6056596040725708
  0
3DFACE
  8
0
 10
-0.14642220735549927
 20
-1.1800651550292969
 30
0.6056596040725708
 11
-0.15902215242385864
 21
-1.168546199798584
 31
0.6056596040725708
 12
-0.25982218980789185
 22
-1.1685457229614258
 32
0.6056596040725708
 13
-0.2724221348762512
 23
-1.1800646781921387
 33
0.6056596040725708
  0
3DFACE
  8
0
 10
-0.14642220735549927
 20
-1.0648741722106934
 30
0.6056596040725708
 11
-0.15902215242385864
 21
-1.0763936042785645
 31
0.6056596040725708
 12
-0.15902215242385864
 22
-1.168546199798584
 32
0.6056596040725708
 13
-0.14642220735549927
 23
-1.1800651550292969
 33
0.6056596040725708
  0
3DFACE
  8
0
 10
-0.2724221348762512
 20
-1.0648741722106934
 30
0.6056596040725708
 11
-0.25982218980789185
 21
-1.0763931274414062
 31
0.6056596040725708
 12
-0.15902215242385864
 22
-1.0763936042785645
 32
0.6056596040725708
 13
-0.14642220735549927
 23
-1.0648741722106934
 33
0.6056596040725708
  0
3DFACE
  8
0
 10
-2.000000238418579
 20
-0.9999996423721313
 30
2.0
 11
-2.0
 21
1.0
 31
2.0
 12
-2.0
 22
1.0
 32
1.899999976158142
 13
-2.000000238418579
 23
-0.8999996781349182
 33
1.899999976158142
  0
3DFACE
  8
0
 10
-0.2724221348762512
 20
-1.0648741722106934
 30
0.01765960454940796
 11
-0.2724221348762512
 21
-1.1800646781921387
 31
0.01765960454940796
 12
-0.2724221348762512
 22
-1.1800646781921387
 32
0.6056596040725708
 13
-0.2724221348762512
 23
-1.0648741722106934
 33
0.6056596040725708
  0
3DFACE
  8
0
 10
-0.25953418016433716
 20
-1.070085048675537
 30
0.804660975933075
 11
-0.25953418016433716
 21
-1.070085048675537
 31
0.6433809399604797
 12
-0.15931016206741333
 22
-1.070085048675537
 32
0.6433809399604797
 13
-0.15931016206741333
 23
-1.070085048675537
 33
0.804660975933075
  0
3DFACE
  8
0
 10
-1.7435107231140137
 20
-0.8184155225753784
 30
0.586715579032898
 11
-1.7435107231140137
 21
-0.7262629270553589
 31
0.586715579032898
 12
-1.8443107604980469
 22
-0.7262624502182007
 32
0.586715579032898
 13
-1.8443107604980469
 23
-0.8184150457382202
 33
0.586715579032898
  0
3DFACE
  8
0
 10
-1.7312705516815186
 20
-0.8299344778060913
 30
0.8248209953308105
 11
-1.7312705516815186
 21
-0.8146637678146362
 31
0.8248209953308105
 12
-1.856550693511963
 22
-0.8146637678146362
 32
0.8248209953308105
 13
-1.856550693511963
 23
-0.8299344778060913
 33
0.8248209953308105
  0
3DFACE
  8
0
 10
-0.15902215242385864
 20
-1.0763936042785645
 30
0.6056596040725708
 11
-0.15902215242385864
 21
-1.0763936042785645
 31
0.586715579032898
 12
-0.15902215242385864
 22
-1.168546199798584
 32
0.586715579032898
 13
-0.15902215242385864
 23
-1.168546199798584
 33
0.6056596040725708
  0
3DFACE
  8
0
 10
-1.856550693511963
 20
-0.8299344778060913
 30
0.6232209205627441
 11
-1.856550693511963
 21
-0.8146637678146362
 31
0.6232209205627441
 12
-1.7312705516815186
 22
-0.8146637678146362
 32
0.6232209205627441
 13
-1.7312705516815186
 23
-0.8299344778060913
 33
0.6232209205627441
  0
3DFACE
  8
0
 10
-2.0
 20
-0.9999998211860657
 30
0.0
 11
-2.000000238418579
 21
-0.9999996423721313
 31
2.0
 12
-2.000000238418579
 22
-0.8999996781349182
 32
1.899999976158142
 13
-2.0011091232299805
 23
-0.8982442617416382
 33
0.06159555912017822
  0
3DFACE
  8
0
 10
-1.856550693511963
 20
-0.8146637678146362
 30
0.8248209953308105
 11
-1.8440227508544922
 21
-0.8146637678146362
 31
0.804660975933075
 12
-1.8440227508544922
 22
-0.8146637678146362
 32
0.6433809399604797
 13
-1.856550693511963
 23
-0.8146637678146362
 33
0.6232209205627441
  0
3DFACE
  8
0
 10
-1.7312705516815186
 20
-0.8146637678146362
 30
0.8248209953308105
 11
-1.7437987327575684
 21
-0.8146637678146362
 31
0.804660975933075
 12
-1.8440227508544922
 22
-0.8146637678146362
 32
0.804660975933075
 13
-1.856550693511963
 23
-0.8146637678146362
 33
0.8248209953308105
  0
3DFACE
  8
0
 10
-1.7312705516815186
 20
-0.8146637678146362
 30
0.6232209205627441
 11
-1.7437987327575684
 21
-0.8146637678146362
 31
0.6433809399604797
 12
-1.7437987327575684
 22
-0.8146637678146362
 32
0.804660975933075
 13
-1.7312705516815186
 23
-0.8146637678146362
 33
0.8248209953308105
  0
3DFACE
  8
0
 10
-0.15931016206741333
 20
-1.0801448822021484
 30
0.804660975933075
 11
-0.15931016206741333
 21
-1.070085048675537
 31
0.804660975933075
 12
-0.15931016206741333
 22
-1.070085048675537
 32
0.6433809399604797
 13
-0.15931016206741333
 23
-1.0801448822021484
 33
0.6433809399604797
  0
3DFACE
  8
0
 10
-1.7437987327575684
 20
-0.8146637678146362
 30
0.804660975933075
 11
-1.7437987327575684
 21
-0.8247236013412476
 31
0.804660975933075
 12
-1.8440227508544922
 22
-0.8247236013412476
 32
0.804660975933075
 13
-1.8440227508544922
 23
-0.8146637678146362
 33
0.804660975933075
  0
3DFACE
  8
0
 10
-1.7437987327575684
 20
-0.8247236013412476
 30
0.6433809399604797
 11
-1.7437987327575684
 21
-0.8146637678146362
 31
0.6433809399604797
 12
-1.8440227508544922
 22
-0.8146637678146362
 32
0.6433809399604797
 13
-1.8440227508544922
 23
-0.8247236013412476
 33
0.6433809399604797
  0
3DFACE
  8
0
 10
-1.7039105892181396
 20
-0.8985542058944702
 30
1.2000000476837158
 11
-1.7039105892181396
 21
-0.8299344778060913
 31
0.8400000333786011
 12
-1.8839106559753418
 22
-0.8299344778060913
 32
0.8400000333786011
 13
-1.8839106559753418
 23
-0.8985542058944702
 33
1.2000000476837158
  0
3DFACE
  8
0
 10
-0.14678210020065308
 20
-1.0648741722106934
 30
0.6232209205627441
 11
-0.14678210020065308
 21
-1.0801448822021484
 31
0.6232209205627441
 12
-0.2720622420310974
 22
-1.0801448822021484
 32
0.6232209205627441
 13
-0.2720622420310974
 23
-1.0648741722106934
 33
0.6232209205627441
  0
3DFACE
  8
0
 10
-0.21695303916931152
 20
-0.9006943702697754
 30
0.4191049337387085
 11
-0.21661370992660522
 21
-0.9002171754837036
 31
1.4735262393951416
 12
1.9999992847442627
 22
-0.9000005722045898
 32
1.899999976158142
 13
1.9988679885864258
 23
-0.9017357230186462
 33
0.07052481174468994
  0
3DFACE
  8
0
 10
1.9999992847442627
 20
-0.9000005722045898
 30
1.899999976158142
 11
-0.21661370992660522
 21
-0.9002171754837036
 31
1.4735262393951416
 12
-0.43300044536590576
 22
-0.9000003337860107
 32
1.4735262393951416
 13
-0.43300050497055054
 23
-0.9000004529953003
 33
1.7000000476837158
  0
3DFACE
  8
0
 10
-0.43300020694732666
 20
-0.9000000357627869
 30
0.4191049337387085
 11
-0.21695303916931152
 21
-0.9006943702697754
 31
0.4191049337387085
 12
1.9988679885864258
 22
-0.9017357230186462
 32
0.07052481174468994
 13
-0.4330001473426819
 23
-0.8999999165534973
 33
0.09999996423721313
  0
3DFACE
  8
0
 10
-2.0011091232299805
 20
-0.8982442617416382
 30
0.06159555912017822
 11
1.9988679885864258
 21
-0.9017357230186462
 31
0.07052481174468994
 12
2.002229690551758
 22
0.9982343912124634
 32
0.060478031635284424
 13
-1.9977469444274902
 23
1.0017262697219849
 33
0.05154883861541748
  0
3DFACE
  8
0
 10
-0.25982218980789185
 20
-1.0763931274414062
 30
0.6056596040725708
 11
-0.25982218980789185
 21
-1.0763931274414062
 31
0.586715579032898
 12
-0.15902215242385864
 22
-1.0763936042785645
 32
0.586715579032898
 13
-0.15902215242385864
 23
-1.0763936042785645
 33
0.6056596040725708
  0
3DFACE
  8
0
 10
-0.14642220735549927
 20
-1.1800651550292969
 30
0.01765960454940796
 11
-0.14642220735549927
 21
-1.1800651550292969
 31
0.6056596040725708
 12
-0.2724221348762512
 22
-1.1800646781921387
 32
0.6056596040725708
 13
-0.2724221348762512
 23
-1.1800646781921387
 33
0.01765960454940796
  0
3DFACE
  8
0
 10
-0.2994222044944763
 20
-1.0648741722106934
 30
0.8400000333786011
 11
-0.2994222044944763
 21
-1.0648741722106934
 31
0.0
 12
-0.11942213773727417
 22
-1.0648741722106934
 32
0.0
 13
-0.11942213773727417
 23
-1.0648741722106934
 33
0.8400000333786011
  0
3DFACE
  8
0
 10
2.0
 20
-0.9999999403953552
 30
0.0
 11
1.9999992847442627
 21
-1.0000005960464478
 31
2.0
 12
-0.4330005645751953
 22
-1.0000004768371582
 32
1.7000000476837158
 13
-0.4330001473426819
 23
-0.9999999403953552
 33
0.09999996423721313
  0
3DFACE
  8
0
 10
-2.000000238418579
 20
-0.9999996423721313
 30
2.0
 11
-2.0
 21
-0.9999998211860657
 31
0.0
 12
-1.567000150680542
 22
-0.9999998211860657
 32
0.09999996423721313
 13
-1.567000389099121
 23
-0.9999997019767761
 33
1.7000000476837158
  0
3DFACE
  8
0
 10
-2.0
 20
-0.9999998211860657
 30
0.0
 11
2.0
 21
-0.9999999403953552
 31
0.0
 12
-0.4330001473426819
 22
-0.9999999403953552
 32
0.09999996423721313
 13
-1.567000150680542
 23
-0.9999998211860657
 33
0.09999996423721313
  0
3DFACE
  8
0
 10
1.9999992847442627
 20
-1.0000005960464478
 30
2.0
 11
-2.000000238418579
 21
-0.9999996423721313
 31
2.0
 12
-1.567000389099121
 22
-0.9999997019767761
 32
1.7000000476837158
 13
-0.4330005645751953
 23
-1.0000004768371582
 33
1.7000000476837158
  0
3DFACE
  8
0
 10
-1.8625309467315674
 20
-1.0729591846466064
 30
1.9378284215927124
 11
-1.8625309467315674
 21
-1.0729594230651855
 31
0.0
 12
-1.7044695615768433
 22
-1.0729594230651855
 32
0.0
 13
-1.7044696807861328
 23
-1.0729591846466064
 33
1.9378284215927124
  0
3DFACE
  8
0
 10
-1.7435107231140137
 20
-0.7262629270553589
 30
0.586715579032898
 11
-1.7435107231140137
 21
-0.7262629270553589
 31
0.6056596040725708
 12
-1.8443107604980469
 22
-0.7262624502182007
 32
0.6056596040725708
 13
-1.8443107604980469
 23
-0.7262624502182007
 33
0.586715579032898
  0
3DFACE
  8
0
 10
-1.7435107231140137
 20
-0.8184155225753784
 30
0.6056596040725708
 11
-1.7435107231140137
 21
-0.8184155225753784
 31
0.586715579032898
 12
-1.8443107604980469
 22
-0.8184150457382202
 32
0.586715579032898
 13
-1.8443107604980469
 23
-0.8184150457382202
 33
0.6056596040725708
  0
3DFACE
  8
0
 10
-1.7309107780456543
 20
-0.8299344778060913
 30
0.6056596040725708
 11
-1.7435107231140137
 21
-0.8184155225753784
 31
0.6056596040725708
 12
-1.8443107604980469
 22
-0.8184150457382202
 32
0.6056596040725708
 13
-1.8569107055664062
 23
-0.8299344778060913
 33
0.6056596040725708
  0
3DFACE
  8
0
 10
-1.8569107055664062
 20
-0.8299344778060913
 30
0.6056596040725708
 11
-1.8443107604980469
 21
-0.8184150457382202
 31
0.6056596040725708
 12
-1.8443107604980469
 22
-0.7262624502182007
 32
0.6056596040725708
 13
-1.8569107055664062
 23
-0.7147434949874878
 33
0.6056596040725708
  0
3DFACE
  8
0
 10
-1.8569107055664062
 20
-0.7147434949874878
 30
0.6056596040725708
 11
-1.8443107604980469
 21
-0.7262624502182007
 31
0.6056596040725708
 12
-1.7435107231140137
 22
-0.7262629270553589
 32
0.6056596040725708
 13
-1.7309107780456543
 23
-0.714743971824646
 33
0.6056596040725708
  0
3DFACE
  8
0
 10
-1.7309107780456543
 20
-0.714743971824646
 30
0.6056596040725708
 11
-1.7435107231140137
 21
-0.7262629270553589
 31
0.6056596040725708
 12
-1.7435107231140137
 22
-0.8184155225753784
 32
0.6056596040725708
 13
-1.7309107780456543
 23
-0.8299344778060913
 33
0.6056596040725708
  0
3DFACE
  8
0
 10
-1.856550693511963
 20
-0.8146637678146362
 30
0.6232209205627441
 11
-1.8440227508544922
 21
-0.8146637678146362
 31
0.6433809399604797
 12
-1.7437987327575684
 22
-0.8146637678146362
 32
0.6433809399604797
 13
-1.7312705516815186
 23
-0.8146637678146362
 33
0.6232209205627441
  0
3DFACE
  8
0
 10
-1.856550693511963
 20
-0.8299344778060913
 30
0.8248209953308105
 11
-1.856550693511963
 21
-0.8146637678146362
 31
0.8248209953308105
 12
-1.856550693511963
 22
-0.8146637678146362
 32
0.6232209205627441
 13
-1.856550693511963
 23
-0.8299344778060913
 33
0.6232209205627441
  0
3DFACE
  8
0
 10
-1.7437987327575684
 20
-0.8146637678146362
 30
0.6433809399604797
 11
-1.7437987327575684
 21
-0.8247236013412476
 31
0.6433809399604797
 12
-1.7437987327575684
 22
-0.8247236013412476
 32
0.804660975933075
 13
-1.7437987327575684
 23
-0.8146637678146362
 33
0.804660975933075
  0
3DFACE
  8
0
 10
-1.9014623165130615
 20
-0.9999998211860657
 30
0.0
 11
-1.8625309467315674
 21
-1.0729594230651855
 31
0.0
 12
-1.8625309467315674
 22
-1.0729591846466064
 32
1.9378284215927124
 13
-1.9014625549316406
 23
-0.9999997019767761
 33
2.0
  0
3DFACE
  8
0
 10
2.0
 20
1.0
 30
0.0
 11
2.002229690551758
 21
0.9982343912124634
 31
0.060478031635284424
 12
1.9988679885864258
 22
-0.9017357230186462
 32
0.07052481174468994
 13
2.0
 23
-0.9999999403953552
 33
0.0
  0
3DFACE
  8
0
 10
1.9999992847442627
 20
-1.0000005960464478
 30
2.0
 11
2.0
 21
-0.9999999403953552
 31
0.0
 12
1.9988679885864258
 22
-0.9017357230186462
 32
0.07052481174468994
 13
1.9999992847442627
 23
-0.9000005722045898
 33
1.899999976158142
  0
3DFACE
  8
0
 10
2.000000476837158
 20
0.9999995231628418
 30
1.899999976158142
 11
1.9999992847442627
 21
-0.9000005722045898
 31
1.899999976158142
 12
-2.000000238418579
 22
-0.8999996781349182
 32
1.899999976158142
 13
-2.0
 23
1.0
 33
1.899999976158142
  0
3DFACE
  8
0
 10
-0.18061482906341553
 20
-0.9031264781951904
 30
0.43224722146987915
 11
-1.4668687582015991
 21
-0.9024321436882019
 31
0.43224722146987915
 12
-1.4668760299682617
 22
-0.9026505947113037
 32
0.7574334740638733
 13
-0.18050891160964966
 23
-0.9026505947113037
 33
0.7574334740638733
  0
3DFACE
  8
0
 10
-1.3561646938323975
 20
-0.9482302069664001
 30
1.3554158210754395
 11
-1.4668774604797363
 21
-0.902432918548584
 31
1.461439609527588
 12
-1.4668790102005005
 22
-0.9026486873626709
 32
1.1341369152069092
 13
-1.3561654090881348
 23
-0.9482296705245972
 33
1.2401607036590576
  0
3DFACE
  8
0
 10
-1.4668687582015991
 20
-0.9024321436882019
 30
0.43224722146987915
 11
-1.3561564683914185
 21
-0.9482297301292419
 31
0.5372140407562256
 12
-1.3561601638793945
 22
-0.9482302665710449
 32
0.6524670124053955
 13
-1.4668760299682617
 23
-0.9026505947113037
 33
0.7574334740638733
  0
3DFACE
  8
0
 10
-1.4668774604797363
 20
-0.902432918548584
 30
1.461439609527588
 11
-1.3561646938323975
 21
-0.9482302069664001
 31
1.3554158210754395
 12
-0.18032097816467285
 22
-0.948461651802063
 32
1.3554158210754395
 13
-0.18028396368026733
 23
-0.9026497602462769
 33
1.461439609527588
  0
3DFACE
  8
0
 10
-1.4668760299682617
 20
-0.9026505947113037
 30
0.7574334740638733
 11
-1.3561601638793945
 21
-0.9482302665710449
 31
0.6524670124053955
 12
-0.18054276704788208
 22
-0.9488088488578796
 32
0.6524674892425537
 13
-0.18050891160964966
 23
-0.9026505947113037
 33
0.7574334740638733
  0
3DFACE
  8
0
 10
-1.3561564683914185
 20
-0.9482297301292419
 30
0.5372140407562256
 11
-1.4668687582015991
 21
-0.9024321436882019
 31
0.43224722146987915
 12
-0.18061482906341553
 22
-0.9031264781951904
 32
0.43224722146987915
 13
-0.18057680130004883
 23
-0.9488660097122192
 33
0.5372130870819092
  0
3DFACE
  8
0
 10
-0.1803985834121704
 20
-0.9026486873626709
 30
1.1341369152069092
 11
-1.4668790102005005
 21
-0.9026486873626709
 31
1.1341369152069092
 12
-1.4668774604797363
 22
-0.902432918548584
 32
1.461439609527588
 13
-0.18028396368026733
 23
-0.9026497602462769
 33
1.461439609527588
  0
3DFACE
  8
0
 10
-1.3561601638793945
 20
-0.9482302665710449
 30
0.6524670124053955
 11
-1.3561564683914185
 21
-0.9482297301292419
 31
0.5372140407562256
 12
-0.18057680130004883
 22
-0.9488660097122192
 32
0.5372130870819092
 13
-0.18054276704788208
 23
-0.9488088488578796
 33
0.6524674892425537
  0
3DFACE
  8
0
 10
-1.3561654090881348
 20
-0.9482296705245972
 30
1.2401607036590576
 11
-1.4668790102005005
 21
-0.9026486873626709
 31
1.1341369152069092
 12
-0.1803985834121704
 22
-0.9026486873626709
 32
1.1341369152069092
 13
-0.18035942316055298
 23
-0.9485189318656921
 33
1.2401602268218994
  0
3DFACE
  8
0
 10
-1.3561646938323975
 20
-0.9482302069664001
 30
1.3554158210754395
 11
-1.3561654090881348
 21
-0.9482296705245972
 31
1.2401607036590576
 12
-0.18035942316055298
 22
-0.9485189318656921
 32
1.2401602268218994
 13
-0.18032097816467285
 23
-0.948461651802063
 33
1.3554158210754395
  0
3DFACE
  8
0
 10
-0.4199543595314026
 20
-0.8469735383987427
 30
1.7000000476837158
 11
-0.41995400190353394
 21
-0.8469732999801636
 31
0.09999996423721313
 12
-1.6250693798065186
 22
-0.8469732403755188
 32
0.09999996423721313
 13
-1.6250696182250977
 23
-0.846973180770874
 33
1.7000000476837158
  0
3DFACE
  8
0
 10
-1.6250693798065186
 20
-0.8976260423660278
 30
0.09999996423721313
 11
-1.6250693798065186
 21
-0.8469732403755188
 31
0.09999996423721313
 12
-0.41995400190353394
 22
-0.8469732999801636
 32
0.09999996423721313
 13
-0.41995400190353394
 23
-0.8976261019706726
 33
0.09999996423721313
  0
3DFACE
  8
0
 10
-0.4199543595314026
 20
-0.8976263999938965
 30
1.7000000476837158
 11
-0.4199543595314026
 21
-0.8469735383987427
 31
1.7000000476837158
 12
-1.6250696182250977
 22
-0.846973180770874
 32
1.7000000476837158
 13
-1.6250696182250977
 23
-0.8976259827613831
 33
1.7000000476837158
  0
3DFACE
  8
0
 10
-0.41995400190353394
 20
-0.8976261019706726
 30
0.09999996423721313
 11
-0.41995400190353394
 21
-0.8469732999801636
 31
0.09999996423721313
 12
-0.4199543595314026
 22
-0.8469735383987427
 32
1.7000000476837158
 13
-0.4199543595314026
 23
-0.8976263999938965
 33
1.7000000476837158
  0
3DFACE
  8
0
 10
-1.6250696182250977
 20
-0.8976259827613831
 30
1.7000000476837158
 11
-1.6250696182250977
 21
-0.846973180770874
 31
1.7000000476837158
 12
-1.6250693798065186
 22
-0.8469732403755188
 32
0.09999996423721313
 13
-1.6250693798065186
 23
-0.8976260423660278
 33
0.09999996423721313
  0
3DFACE
  8
0
 10
-1.6250696182250977
 20
-0.8976259827613831
 30
1.7000000476837158
 11
-1.6250693798065186
 21
-0.8976260423660278
 31
0.09999996423721313
 12
-0.41995400190353394
 22
-0.8976261019706726
 32
0.09999996423721313
 13
-0.4199543595314026
 23
-0.8976263999938965
 33
1.7000000476837158
  0
3DFACE
  8
0
 10
-1.753478765487671
 20
-0.8092406392097473
 30
0.6153568029403687
 11
-1.753478765487671
 21
-0.7318323254585266
 31
0.6153568029403687
 12
-1.8381507396697998
 22
-0.7318320870399475
 32
0.6153568029403687
 13
-1.8381507396697998
 23
-0.8092404007911682
 33
0.6153568029403687
  0
3DFACE
  8
0
 10
-1.753478765487671
 20
-0.7318323254585266
 30
0.6153568029403687
 11
-1.753478765487671
 21
-0.8092406392097473
 31
0.6153568029403687
 12
-1.753478765487671
 22
-0.8092406392097473
 32
0.5889525413513184
 13
-1.753478765487671
 23
-0.7318323254585266
 33
0.5889525413513184
  0
3DFACE
  8
0
 10
-1.8381507396697998
 20
-0.7318320870399475
 30
0.6153568029403687
 11
-1.753478765487671
 21
-0.7318323254585266
 31
0.6153568029403687
 12
-1.753478765487671
 22
-0.7318323254585266
 32
0.5889525413513184
 13
-1.8381507396697998
 23
-0.7318320870399475
 33
0.5889525413513184
  0
3DFACE
  8
0
 10
-1.8381507396697998
 20
-0.7318320870399475
 30
0.5889525413513184
 11
-1.8381507396697998
 21
-0.8092404007911682
 31
0.5889525413513184
 12
-1.8381507396697998
 22
-0.8092404007911682
 32
0.6153568029403687
 13
-1.8381507396697998
 23
-0.7318320870399475
 33
0.6153568029403687
  0
3DFACE
  8
0
 10
-1.8381507396697998
 20
-0.8092404007911682
 30
0.5889525413513184
 11
-1.753478765487671
 21
-0.8092406392097473
 31
0.5889525413513184
 12
-1.753478765487671
 22
-0.8092406392097473
 32
0.6153568029403687
 13
-1.8381507396697998
 23
-0.8092404007911682
 33
0.6153568029403687
  0
3DFACE
  8
0
 10
-0.2499551773071289
 20
-1.0852108001708984
 30
0.6153568029403687
 11
-0.2499551773071289
 21
-1.1626191139221191
 31
0.6153568029403687
 12
-0.165283203125
 22
-1.1626193523406982
 32
0.6153568029403687
 13
-0.165283203125
 23
-1.0852110385894775
 33
0.6153568029403687
  0
3DFACE
  8
0
 10
-0.2499551773071289
 20
-1.1626191139221191
 30
0.6153568029403687
 11
-0.2499551773071289
 21
-1.0852108001708984
 31
0.6153568029403687
 12
-0.2499551773071289
 22
-1.0852108001708984
 32
0.5889525413513184
 13
-0.2499551773071289
 23
-1.1626191139221191
 33
0.5889525413513184
  0
3DFACE
  8
0
 10
-0.165283203125
 20
-1.1626193523406982
 30
0.6153568029403687
 11
-0.2499551773071289
 21
-1.1626191139221191
 31
0.6153568029403687
 12
-0.2499551773071289
 22
-1.1626191139221191
 32
0.5889525413513184
 13
-0.165283203125
 23
-1.1626193523406982
 33
0.5889525413513184
  0
3DFACE
  8
0
 10
-0.165283203125
 20
-1.1626193523406982
 30
0.5889525413513184
 11
-0.165283203125
 21
-1.0852110385894775
 31
0.5889525413513184
 12
-0.165283203125
 22
-1.0852110385894775
 32
0.6153568029403687
 13
-0.165283203125
 23
-1.1626193523406982
 33
0.6153568029403687
  0
3DFACE
  8
0
 10
-0.165283203125
 20
-1.0852110385894775
 30
0.5889525413513184
 11
-0.2499551773071289
 21
-1.0852108001708984
 31
0.5889525413513184
 12
-0.2499551773071289
 22
-1.0852108001708984
 32
0.6153568029403687
 13
-0.165283203125
 23
-1.0852110385894775
 33
0.6153568029403687
  0
ENDSEC
  0
EOF
